PathFileType	4	(X/Y/Z)	 s08c0302.trc
DataRate	CameraRate	NumFrames	NumMarkers	Units	OrigDataRate	OrigDataStartFrame	OrigNumFrames
200	200	4	50	mm	200	1501	2000
Frame#	Time	racr			lacr			c7			jug			rlel			rdr			llel			ldr			s2			lic			ric			lasi			rasi			rpsi			lpsi			rgt			lgt			rth1			rth2			rth3			rth4			rlfc			rmfc			rsh1			rsh2			rsh3			rsh4			rlmal			rmmal			rcal			rtoe			rmt5			lth1			lth2			lth4			lth3			llfc			lmfc			llmal			lmmal			lcal			lmt5			lsh1			lsh2			lsh3			lsh4			ltoe			SBIKE			LBIKE			RBIKE			
		X1	Y1	Z1	X2	Y2	Z2	X3	Y3	Z3	X4	Y4	Z4	X5	Y5	Z5	X6	Y6	Z6	X7	Y7	Z7	X8	Y8	Z8	X9	Y9	Z9	X10	Y10	Z10	X11	Y11	Z11	X12	Y12	Z12	X13	Y13	Z13	X14	Y14	Z14	X15	Y15	Z15	X16	Y16	Z16	X17	Y17	Z17	X18	Y18	Z18	X19	Y19	Z19	X20	Y20	Z20	X21	Y21	Z21	X22	Y22	Z22	X23	Y23	Z23	X24	Y24	Z24	X25	Y25	Z25	X26	Y26	Z26	X27	Y27	Z27	X28	Y28	Z28	X29	Y29	Z29	X30	Y30	Z30	X31	Y31	Z31	X32	Y32	Z32	X33	Y33	Z33	X34	Y34	Z34	X35	Y35	Z35	X36	Y36	Z36	X37	Y37	Z37	X38	Y38	Z38	X39	Y39	Z39	X40	Y40	Z40	X41	Y41	Z41	X42	Y42	Z42	X43	Y43	Z43	X44	Y44	Z44	X45	Y45	Z45	X46	Y46	Z46	X47	Y47	Z47	X48	Y48	Z48	X49	Y49	Z49	X50	Y50	Z50	
1501	7.5050	832.841100	1437.195794	-95.872258	864.829686	1344.624425	-407.364736	829.220004	1447.831517	-261.686116	768.800690	1299.318791	-224.039502	774.541335	1180.771099	19.785551	808.194259	886.109957	-36.351829	701.298648	1129.883502	-514.392548	807.042280	903.595257	-411.691765	262.626366	1249.525191	-192.034663	416.864949	1198.312578	-349.443213	439.482759	1270.289440	-46.026399	435.270714	1151.859282	-305.427130	449.076525	1196.600276	-72.065728	302.072097	1292.641014	-150.313061	297.793230	1279.069143	-245.036789	352.749484	1154.918370	11.685962	331.619493	1092.481607	-356.524503	464.135343	1009.920758	6.141389	532.051983	953.704088	-6.924152	560.747476	872.705894	-21.107663	559.449645	975.357855	-20.748279	603.395549	774.523452	-49.558480	578.960521	777.134217	-158.733137	481.174851	730.583032	-20.435802	419.288906	668.068736	-39.816167	336.065953	645.527163	-43.999247	437.983707	645.651485	-69.191094	227.328724	595.436530	-50.455852	256.628186	594.725507	-137.808337	166.895691	646.837788	-98.331310	295.409258	375.990487	-101.109107	228.799790	442.169954	-32.960149	361.199370	964.273868	-372.455896	400.236051	886.368584	-372.508746	435.055648	893.109259	-363.971054	394.296622	797.338421	-373.206734	406.849849	674.476188	-359.217698	395.897959	646.649430	-260.303662	274.751015	278.166250	-386.590380	321.685738	298.400402	-316.230232	209.342655	272.484389	-349.607536	390.096567	157.951037	-411.930900	360.260025	554.467904	-393.683084	357.887517	469.120555	-382.646003	314.232979	392.664324	-387.531594	379.776305	464.243980	-348.983269	478.165289	165.134892	-344.697526	-141.851244	937.963540	-220.566451	16.679883	83.358302	-424.077190	9.795725	80.401381	-26.270572	
1502	7.5100	831.801202	1437.951830	-91.451362	867.124649	1347.089096	-405.320576	829.477393	1448.963112	-257.873989	770.165335	1299.771079	-221.062972	773.212620	1180.456010	21.242143	808.231507	886.444660	-36.269265	704.801433	1130.692206	-512.735749	807.510762	902.284052	-411.141817	262.421879	1246.959302	-197.745031	421.293397	1194.343693	-350.227692	435.459545	1270.736340	-47.982609	437.675636	1147.743522	-305.675222	446.637976	1197.048584	-72.879109	300.610441	1290.335073	-155.934178	298.616904	1276.158166	-250.360096	349.414582	1155.593462	8.832850	333.811757	1089.651942	-358.772501	463.812659	1012.648995	5.609181	533.361066	958.318568	-6.694251	564.263014	878.037682	-19.906225	560.135361	980.462078	-20.739276	609.816553	781.079431	-48.761200	586.666482	783.217400	-158.417622	487.959278	737.174002	-20.606691	426.235974	674.375988	-39.944707	343.024213	651.804071	-44.532885	444.354304	652.318041	-68.565123	234.756906	601.237864	-51.548676	264.331899	600.730756	-138.691406	173.376413	651.590600	-99.507737	306.215753	383.008105	-100.714391	238.366312	448.282743	-33.129749	360.395030	962.061793	-374.311480	397.436637	883.116686	-374.121328	432.249747	888.892600	-364.742251	389.345106	794.336165	-375.393629	398.023803	670.601714	-360.961364	386.309475	642.969951	-262.214986	266.679725	274.037439	-387.494385	313.564904	294.432327	-317.122457	201.815373	269.546282	-350.444125	380.946802	152.194197	-411.984055	351.259723	550.750097	-395.533895	349.219736	465.241847	-384.397189	305.807356	388.720186	-389.032525	371.114306	460.562906	-350.753525	469.029997	158.299641	-344.850724	-141.893546	937.964799	-220.679802	16.677512	83.358310	-424.098085	9.807066	80.449755	-26.256688	
1503	7.5150	830.801607	1438.606492	-86.846214	868.492929	1348.340053	-398.873173	829.725262	1450.266229	-253.845559	769.923626	1301.005241	-218.018165	771.732169	1180.215164	23.576433	808.199156	886.845556	-36.186298	708.281691	1131.576463	-511.055661	808.018393	901.107313	-410.519936	262.380059	1244.557548	-203.515682	425.582138	1190.818125	-350.960082	431.535979	1271.206901	-50.176504	440.312604	1143.840231	-306.063643	444.122350	1197.582489	-74.007962	298.594133	1290.054511	-160.512357	299.617635	1273.270198	-255.778484	346.090730	1156.588823	6.255695	335.848498	1087.333313	-361.102226	463.790179	1015.848544	4.570886	534.698592	963.307327	-6.629581	568.146905	883.685667	-20.193972	560.896300	986.031249	-20.671351	615.979535	787.705172	-47.816717	593.986702	789.280175	-157.753807	494.732881	743.472854	-20.565704	432.839001	680.585852	-40.265363	350.127756	657.717556	-44.943621	451.161755	658.196759	-68.593933	242.197601	606.372443	-52.408451	271.515291	606.542602	-139.755631	179.862538	655.698311	-100.437561	316.895314	389.174276	-101.265714	248.241624	453.710629	-33.282083	359.566559	960.111208	-376.396229	394.665566	880.187685	-376.050805	429.407645	885.076893	-365.866273	384.425202	791.593468	-377.979574	389.264109	667.406505	-363.007758	377.102270	640.142539	-264.390142	258.543220	270.591010	-388.570028	306.089443	291.139222	-318.630922	194.219789	267.393541	-351.532515	371.580464	146.944294	-412.078936	342.562503	547.554571	-397.594615	340.423285	462.137893	-386.372384	297.269941	385.377316	-390.768270	362.351006	457.477222	-352.595202	459.625289	152.014857	-344.630761	-141.941859	937.973670	-220.803240	16.667595	83.329650	-424.143253	9.861261	80.492594	-26.255351	
1504	7.5200	829.860973	1439.121227	-82.318578	870.000614	1350.395668	-394.577108	829.865986	1451.491075	-249.518057	770.392929	1301.832084	-214.714734	769.774211	1179.969228	26.096200	806.759200	887.282348	-38.122356	711.723130	1132.531463	-509.355326	808.517014	899.937357	-409.697113	262.416231	1242.708292	-209.145139	429.773852	1187.923397	-351.484412	427.890575	1272.459751	-51.876048	442.856179	1140.477913	-306.977518	441.780923	1198.294474	-75.233603	297.789476	1287.981435	-165.775482	300.849730	1270.539927	-261.218399	343.114905	1157.728539	3.565140	337.725277	1085.438338	-363.511895	463.767254	1019.533434	3.469662	536.041900	968.758532	-6.777760	571.620679	889.946619	-18.720567	561.867683	991.903097	-20.350500	621.629155	794.306294	-46.313006	601.073075	796.300890	-157.983147	501.197834	749.392288	-20.224596	439.836766	686.279762	-40.164241	357.175906	663.198643	-45.046706	458.399385	663.746506	-68.130954	249.675466	610.784508	-53.097396	279.213937	611.373802	-140.309568	186.303677	659.071683	-101.098690	327.895249	395.158782	-101.375525	258.270516	458.570694	-33.455560	358.767237	958.497824	-378.788565	391.954613	877.704174	-378.264953	426.563866	881.683375	-367.219128	379.561027	789.604632	-380.932080	380.708421	664.773369	-365.241624	367.401497	638.131128	-266.708075	250.347441	267.875113	-389.842573	297.539108	288.460120	-319.721320	186.567327	266.043573	-352.728069	362.151461	142.408952	-412.157595	333.447384	544.962975	-399.856618	331.719819	459.592008	-388.562875	288.628920	382.733754	-392.704182	353.767053	454.971251	-354.819431	450.009394	146.249408	-344.383219	-142.005303	937.982202	-220.949605	16.664191	83.302841	-424.151671	9.863207	80.526782	-26.256672	
